<svg xmlns="http://www.w3.org/2000/svg" version="1.0" width="1177.000000pt" height="1280.000000pt" viewBox="0 0 1177.000000 1280.000000" preserveAspectRatio="xMidYMid meet"><metadata>Created by potrace 1.15, written by Peter Selinger 2001-2017</metadata><g transform="translate(0.000000,1280.000000) scale(0.100000,-0.100000)" fill="#000000" stroke="none"><path d="M6401 12735 c-17 -84 -22 -95 -30 -65 -6 22 -8 23 -14 7 -4 -10 -7 -32 -7 -48 0 -26 -4 -29 -30 -29 -16 0 -30 -2 -30 -4 0 -2 7 -23 15 -47 19 -52 13 -98 -10 -79 -17 14 -19 7 -6 -18 14 -27 -4 -61 -28 -55 -24 6 -27 -10 -12 -50 12 -32 3 -70 -15 -63 -8 3 -20 -6 -28 -22 -20 -41 -48 -162 -42 -185 3 -11 -4 -41 -16 -66 l-20 -45 -24 29 c-23 29 -23 29 -45 10 l-22 -20 17 33 c17 34 8 43 -18 16 -20 -19 -23 -163 -4 -182 18 -18 -9 -62 -40 -62 -18 0 -23 -4 -18 -15 3 -9 1 -38 -5 -65 -11 -49 -11 -49 -35 -34 -35 24 -57 11 -49 -26 4 -19 2 -36 -5 -45 -12 -15 -9 -71 6 -110 5 -11 0 -18 -14 -22 -29 -7 -51 -77 -68 -208 -10 -86 -11 -87 -44 -70 -52 27 -114 12 -77 -18 10 -8 13 -25 10 -54 -4 -33 -10 -43 -28 -47 -26 -7 -35 -51 -35 -168 0 -51 -3 -69 -12 -65 -7 2 -12 11 -10 21 4 24 -15 20 -44 -10 -22 -21 -25 -31 -20 -60 4 -19 16 -50 27 -69 24 -40 21 -42 -28 -18 -30 14 -36 14 -45 2 -10 -15 -4 -211 8 -264 l7 -30 -43 39 c-42 38 -44 39 -53 18 -12 -26 0 -83 13 -62 12 20 15 14 27 -52 l10 -58 -40 7 -40 6 6 -144 c3 -87 11 -163 21 -193 8 -27 13 -53 10 -58 -11 -17 -24 -7 -24 17 0 18 -7 28 -26 35 -37 14 -44 5 -38 -44 7 -46 -6 -66 -30 -47 -11 9 -15 6 -20 -11 -11 -41 -6 -152 9 -216 11 -48 12 -73 4 -111 -5 -26 -9 -52 -7 -57 3 -10 -4 -14 -27 -14 -8 0 -15 7 -15 15 0 8 -4 15 -10 15 -5 0 -10 7 -10 16 0 15 2 15 25 0 23 -15 25 -15 25 1 0 32 -21 93 -31 93 -15 0 -39 -64 -39 -105 0 -19 -4 -35 -10 -35 -35 0 33 -283 91 -376 24 -40 19 -56 -11 -29 -18 16 -20 16 -26 1 -4 -11 -18 -16 -45 -16 -28 0 -42 -5 -46 -17 -8 -20 40 -214 68 -281 11 -25 18 -46 17 -48 -2 -1 -23 2 -48 6 -57 11 -67 2 -53 -50 6 -22 6 -43 2 -46 -5 -3 -9 -18 -9 -33 0 -39 55 -220 90 -297 16 -35 25 -66 20 -69 -5 -3 -32 5 -59 19 -55 26 -59 24 -36 -31 14 -33 14 -37 -2 -48 -15 -12 -15 -17 6 -76 32 -87 97 -242 133 -312 16 -32 26 -62 23 -67 -4 -6 -22 -10 -41 -10 -27 0 -34 -4 -34 -19 0 -11 5 -23 10 -26 16 -10 12 -23 -10 -30 -16 -5 -19 -12 -14 -33 8 -35 102 -233 148 -311 20 -34 36 -64 36 -67 0 -2 -13 -4 -29 -4 -39 0 -45 -13 -27 -49 14 -25 14 -30 1 -35 -39 -14 7 -122 131 -307 71 -106 86 -142 46 -106 -10 10 -22 17 -25 17 -11 0 -8 -39 3 -61 13 -23 8 -24 -31 -3 -29 15 -32 14 -64 -10 -19 -14 -42 -26 -53 -26 -17 0 -20 11 -26 123 -13 226 -30 347 -51 347 -7 0 -16 6 -18 13 -3 8 -16 0 -37 -21 l-32 -33 -14 26 c-9 17 -17 89 -23 194 -6 91 -13 175 -16 186 -23 70 -27 75 -51 69 -15 -4 -24 -2 -24 5 0 26 -30 8 -38 -21 -6 -23 -17 -36 -35 -42 -37 -13 -47 1 -17 24 24 19 24 20 4 20 -19 0 -21 7 -27 101 -9 139 -35 279 -55 286 -8 4 -28 -1 -43 -9 -15 -9 -37 -14 -48 -11 -21 5 -30 -12 -10 -19 6 -2 0 -9 -15 -16 -32 -14 -33 -10 -39 138 -5 113 -30 241 -54 278 -10 16 -20 21 -34 17 -11 -4 -26 -1 -34 5 -12 10 -15 9 -15 -8 0 -26 -29 -36 -64 -23 -21 9 -26 17 -26 43 0 50 -36 171 -82 276 -22 50 -42 92 -45 92 -3 0 -27 -16 -54 -36 -28 -20 -56 -33 -64 -30 -21 8 -19 23 5 29 12 3 20 14 20 26 0 26 -11 27 -41 2 l-23 -19 -33 110 c-37 120 -74 202 -96 211 -8 3 -32 -3 -55 -13 -43 -19 -82 -17 -82 5 0 8 9 17 20 20 29 9 25 31 -8 44 -24 10 -35 29 -71 122 -23 60 -53 121 -65 136 l-22 26 -48 -28 c-31 -18 -51 -24 -57 -18 -7 7 -1 16 15 27 31 20 36 42 7 26 -11 -5 -24 -10 -30 -10 -16 0 -13 36 5 71 20 39 11 49 -20 20 l-23 -22 -23 58 c-34 85 -80 171 -96 177 -7 3 -36 -10 -65 -29 -28 -19 -57 -35 -64 -35 -7 0 -17 23 -23 53 -6 28 -14 60 -17 70 -7 16 -5 16 19 6 18 -9 30 -9 37 -2 16 16 -19 46 -48 40 -21 -4 -27 5 -61 77 -81 172 -103 190 -169 140 -50 -38 -75 -28 -90 36 -7 28 -10 57 -7 65 4 9 0 15 -7 15 -8 0 -29 29 -47 63 -18 35 -46 76 -62 92 l-29 28 -43 -32 c-40 -29 -44 -30 -55 -14 -12 15 -18 45 -14 67 1 5 -4 16 -12 25 -8 9 -33 49 -56 89 -24 40 -49 76 -57 79 -8 3 -26 -5 -39 -17 -25 -23 -45 -20 -45 7 0 20 -46 103 -110 198 -26 39 -73 117 -105 175 -32 58 -68 119 -80 135 -12 17 -28 48 -35 70 -18 57 -127 274 -158 314 -14 19 -27 30 -29 24 -11 -33 123 -652 163 -748 7 -18 6 -18 -20 3 -51 39 -73 26 -35 -22 19 -24 69 -137 69 -153 -1 -5 -8 4 -16 20 -8 15 -18 27 -23 27 -5 0 -11 9 -14 19 -4 18 -61 61 -79 61 -13 0 -9 -29 7 -60 9 -17 22 -30 30 -30 18 0 45 -51 45 -85 0 -18 7 -28 25 -35 15 -6 27 -20 31 -37 9 -43 33 -103 59 -150 14 -26 19 -45 14 -49 -12 -7 -7 -15 -55 79 -39 78 -39 79 -73 73 -55 -9 -59 -22 -22 -60 18 -19 31 -40 28 -48 -4 -9 -6 -10 -6 0 -1 18 -21 15 -21 -4 0 -8 5 -24 10 -35 9 -16 14 -17 30 -7 15 10 23 9 39 -6 16 -14 18 -22 9 -36 -7 -10 -18 -16 -26 -12 -11 4 -11 -1 3 -21 9 -15 21 -27 26 -27 6 0 55 -90 78 -144 2 -6 -9 0 -24 12 -31 25 -44 26 -99 11 -26 -7 -35 -13 -26 -19 7 -4 9 -13 6 -19 -4 -6 -1 -14 7 -17 8 -3 17 -18 20 -33 3 -15 24 -50 45 -78 22 -27 48 -65 57 -84 25 -49 92 -146 138 -201 26 -32 34 -48 24 -48 -16 0 -99 93 -110 123 -5 14 -19 17 -72 17 -45 0 -65 -4 -65 -12 0 -15 72 -128 136 -213 25 -33 67 -96 95 -140 27 -43 68 -99 92 -123 38 -40 40 -43 17 -40 -16 2 -26 11 -30 27 -7 32 -72 65 -129 65 -59 1 -63 -17 -17 -75 19 -24 54 -74 76 -112 23 -37 63 -94 90 -126 56 -67 54 -76 -20 -87 -78 -12 -79 -14 -8 -96 36 -41 68 -84 72 -95 8 -26 51 -80 126 -159 l57 -61 -53 -23 c-57 -23 -70 -40 -30 -40 20 0 23 -4 18 -22 -4 -18 -2 -20 16 -16 14 4 22 0 25 -13 3 -11 14 -19 27 -19 19 0 21 -4 15 -31 -7 -29 -1 -38 109 -147 64 -65 114 -122 112 -129 -3 -7 -19 -13 -35 -13 -16 0 -36 -7 -45 -15 -8 -8 -20 -15 -27 -15 -7 0 8 -22 34 -48 26 -26 47 -56 47 -67 0 -12 44 -62 108 -125 l108 -105 -29 -25 -29 -26 43 -29 c24 -16 46 -30 48 -32 2 -1 -2 -9 -9 -18 -10 -12 -3 -22 41 -63 86 -78 141 -124 197 -165 57 -42 61 -51 33 -67 -28 -15 -41 -12 -41 7 0 16 -2 16 -15 2 -20 -20 -11 -42 30 -73 25 -19 31 -31 28 -49 -4 -20 7 -33 69 -79 40 -30 104 -74 142 -98 67 -42 68 -43 47 -59 l-21 -16 39 -39 c22 -22 38 -43 35 -48 -3 -5 2 -18 11 -28 15 -17 15 -20 0 -44 -21 -32 -31 -33 -46 -3 -30 55 -200 211 -214 195 -1 -2 -10 -16 -18 -33 -9 -16 -24 -40 -34 -53 l-18 -22 -42 62 c-50 77 -193 218 -220 218 -13 0 -29 -16 -47 -50 -15 -27 -30 -50 -34 -50 -4 0 -35 31 -68 68 -55 61 -224 212 -237 212 -3 0 -19 -22 -37 -50 -18 -27 -38 -50 -45 -50 -7 0 -24 17 -38 38 -46 66 -218 217 -230 201 -2 -2 -18 -29 -36 -59 -19 -30 -35 -56 -36 -58 -2 -2 -36 30 -77 71 -67 68 -202 167 -227 167 -6 0 -27 -25 -47 -55 -20 -30 -37 -55 -38 -55 -1 0 -34 31 -73 69 -72 71 -199 161 -227 161 -9 0 -27 -23 -42 -52 -43 -86 -41 -85 -98 -30 -76 74 -277 182 -312 168 -8 -3 -21 -23 -30 -46 -19 -47 -35 -50 -76 -14 -84 70 -324 155 -344 122 -4 -5 0 -14 7 -19 7 -4 11 -11 7 -14 -3 -4 -25 3 -49 15 -55 29 -107 47 -198 71 -41 10 -145 41 -230 69 -135 43 -364 100 -400 100 -26 0 8 -24 217 -151 119 -72 237 -148 261 -167 24 -20 58 -43 75 -52 50 -26 166 -104 166 -112 0 -5 -11 -8 -25 -8 -17 0 -25 -6 -25 -17 0 -13 -3 -14 -12 -5 -16 16 -39 15 -32 -1 7 -19 90 -57 124 -57 21 0 28 -4 24 -14 -6 -16 7 -26 119 -96 44 -27 81 -51 84 -54 3 -2 -18 -15 -46 -28 -28 -13 -51 -26 -51 -29 0 -9 40 -35 130 -85 69 -38 224 -130 260 -154 11 -7 8 -8 -11 -4 -15 3 -30 1 -33 -5 -4 -6 -23 -11 -42 -11 -19 0 -34 -3 -34 -7 0 -16 97 -73 144 -85 56 -15 68 -34 38 -59 -12 -9 -22 -19 -22 -22 0 -14 76 -47 107 -47 26 0 36 -5 40 -20 5 -20 105 -93 144 -105 11 -4 18 -12 15 -18 -3 -7 -9 -20 -12 -30 -4 -12 -13 -17 -25 -14 -11 3 -19 1 -19 -4 0 -5 -14 -15 -30 -24 -17 -9 -30 -20 -30 -25 0 -15 57 -47 115 -66 27 -10 56 -25 65 -35 14 -18 210 -99 237 -99 22 0 15 -16 -12 -28 -14 -7 -30 -23 -37 -37 -14 -31 7 -59 60 -76 19 -6 50 -22 69 -34 37 -26 138 -66 225 -90 42 -12 55 -20 51 -31 -7 -20 -23 -18 -23 4 0 13 -6 10 -25 -13 -38 -46 -32 -61 30 -84 31 -12 59 -21 63 -21 4 0 13 -9 19 -19 15 -23 83 -47 183 -62 41 -7 76 -13 78 -15 2 -1 -4 -16 -12 -33 -20 -37 -20 -41 -2 -41 8 0 17 13 21 30 8 38 25 39 25 2 0 -69 110 -127 278 -147 50 -6 62 -10 62 -25 0 -24 17 -36 63 -44 21 -4 37 -13 37 -21 0 -25 112 -47 308 -61 81 -6 92 -9 92 -25 0 -11 14 -28 33 -38 17 -11 39 -27 48 -35 38 -38 190 -76 304 -76 35 0 67 -5 70 -10 4 -6 15 -8 24 -5 13 4 23 -4 36 -29 20 -37 82 -76 150 -95 22 -6 95 -16 163 -21 135 -11 205 -33 217 -69 4 -14 22 -25 58 -36 54 -15 318 -55 364 -55 14 0 45 -11 69 -25 47 -27 134 -53 397 -115 98 -24 176 -44 174 -46 -6 -6 -330 26 -359 35 -24 8 -28 6 -28 -9 0 -10 5 -22 10 -25 6 -3 10 -11 10 -17 0 -12 -86 -3 -104 11 -6 4 -31 9 -56 10 -25 1 -92 5 -150 10 -58 4 -109 6 -113 3 -5 -2 -7 -15 -4 -28 2 -13 3 -24 2 -24 -1 0 -18 6 -37 14 -38 16 -235 46 -303 46 l-43 0 10 -36 c5 -20 7 -38 4 -41 -3 -4 -38 4 -78 15 -70 21 -157 36 -260 45 l-48 5 0 -54 c0 -30 -4 -54 -10 -54 -5 0 -10 9 -10 20 0 20 -26 28 -32 10 -2 -7 -32 -3 -83 9 -106 26 -168 34 -194 26 -17 -5 -21 -14 -21 -51 0 -42 -1 -44 -29 -44 -16 0 -48 7 -72 16 -24 8 -88 18 -141 21 -126 8 -148 -4 -148 -77 0 -28 -1 -50 -2 -50 -2 0 -59 7 -128 15 -144 17 -224 11 -244 -17 -9 -12 -12 -35 -8 -63 2 -25 1 -45 -3 -45 -5 0 -47 7 -94 16 -83 16 -181 15 -225 -2 -16 -6 -18 -14 -12 -61 l6 -54 -62 1 c-90 2 -235 -15 -253 -30 -8 -7 -15 -27 -15 -46 0 -31 -3 -34 -37 -39 -89 -15 -208 -50 -377 -111 -100 -36 -208 -75 -241 -86 -33 -12 -62 -24 -65 -27 -3 -4 -24 -15 -47 -25 -23 -10 -50 -27 -59 -37 -15 -17 -15 -18 7 -23 13 -3 170 -7 349 -11 290 -5 328 -8 350 -23 40 -29 52 -31 214 -33 l155 -1 7 -34 c11 -60 38 -69 186 -66 l127 3 7 -35 c3 -19 12 -41 20 -47 17 -14 277 -4 404 17 46 7 86 11 89 8 2 -2 12 -26 20 -52 13 -37 20 -46 36 -44 11 1 56 6 100 11 55 5 108 20 168 45 48 20 91 36 96 36 4 0 15 -17 23 -38 l15 -39 94 2 c82 1 107 6 194 39 128 48 124 46 129 37 3 -4 30 -6 60 -5 48 2 77 13 201 78 80 42 169 81 198 87 28 7 118 44 199 84 80 40 164 75 187 78 22 3 64 21 93 40 29 20 54 34 56 33 1 -2 -3 -15 -9 -30 -11 -23 -10 -29 14 -54 l25 -27 -80 -100 c-44 -55 -84 -110 -89 -123 -10 -25 -1 -50 25 -71 14 -12 10 -20 -33 -67 -27 -29 -80 -99 -117 -155 l-69 -101 29 -24 c36 -31 33 -42 -43 -182 -32 -59 -64 -124 -71 -145 -11 -35 -10 -41 10 -62 20 -21 22 -31 17 -82 -29 -272 -27 -617 3 -672 15 -29 12 -34 87 128 67 145 156 302 188 332 14 13 48 63 77 111 84 143 202 258 263 258 31 0 43 17 130 175 89 160 111 192 142 201 12 3 27 12 34 20 6 8 24 14 39 14 37 0 49 32 90 235 17 88 36 164 41 169 5 6 18 5 33 -2 39 -17 56 12 68 115 23 199 31 125 54 -482 23 -642 44 -1509 57 -2388 l12 -819 24 -19 c33 -27 65 -24 106 12 56 49 57 69 40 426 -21 451 -72 1893 -86 2449 -13 489 -5 757 22 790 17 21 25 9 44 -66 23 -89 41 -120 68 -120 12 0 33 -7 46 -17 26 -18 87 -140 121 -243 29 -87 46 -113 71 -105 12 4 19 2 20 -7 1 -7 4 -2 8 12 4 14 15 26 24 28 12 3 15 -1 10 -13 -5 -14 -2 -16 15 -11 18 6 28 -8 88 -124 48 -94 78 -140 108 -166 62 -53 66 -55 75 -49 14 8 133 -129 308 -354 87 -112 164 -206 172 -209 23 -8 7 132 -33 301 -20 81 -36 167 -36 190 0 54 -24 146 -55 216 -23 49 -24 53 -6 48 36 -9 41 6 20 68 -21 63 -86 190 -125 242 -13 17 -24 34 -24 36 0 3 18 8 40 12 38 6 57 25 25 25 -8 0 -15 9 -15 20 0 27 -22 70 -77 149 -24 35 -42 65 -40 67 2 3 10 -2 17 -11 7 -8 17 -15 23 -15 5 0 2 9 -8 20 -10 11 -26 20 -36 20 -12 0 -16 5 -13 15 4 10 0 15 -15 15 -12 0 -21 5 -21 11 0 6 -10 19 -22 30 l-23 19 30 25 c17 14 38 25 48 25 10 0 17 4 15 9 -1 5 -50 60 -108 122 -111 120 -109 121 33 26 62 -41 154 -87 176 -87 7 0 84 -35 170 -77 153 -76 158 -77 251 -83 75 -5 110 -13 165 -37 103 -45 138 -54 202 -54 32 1 73 0 92 -2 25 -1 36 3 45 18 6 11 11 21 11 22 0 1 40 -14 88 -33 56 -23 103 -35 134 -35 61 0 111 -1 142 -3 20 -1 26 6 33 31 5 18 10 33 11 33 1 0 31 -10 67 -21 48 -16 94 -22 175 -23 65 -1 119 -7 133 -14 29 -17 61 0 68 36 l5 27 197 0 196 0 13 25 c12 25 13 25 165 26 326 3 773 22 803 34 l30 13 -61 27 c-33 16 -132 54 -220 85 -215 76 -464 176 -464 186 0 4 5 11 10 14 24 15 -3 22 -44 12 -52 -12 -78 2 -75 37 0 12 1 26 0 32 -1 10 -77 37 -141 49 -57 11 -71 16 -65 25 3 5 1 11 -5 15 -6 3 -13 -1 -16 -9 -4 -12 -20 -16 -55 -16 l-49 0 0 54 c0 52 -1 55 -31 65 -18 6 -56 11 -85 11 -35 0 -54 4 -54 12 0 9 -3 9 -12 0 -7 -7 -33 -12 -59 -12 l-46 0 5 50 c4 47 3 50 -22 60 -15 5 -94 10 -175 10 l-147 0 0 46 c1 45 0 47 -39 61 -39 14 -165 12 -222 -3 -18 -5 -21 -3 -16 16 6 21 4 21 -18 10 -13 -7 -34 -22 -46 -33 l-23 -20 0 56 c0 72 -15 82 -125 80 -72 -1 -199 -22 -223 -37 -5 -3 -7 18 -4 48 l4 53 -73 -9 c-41 -5 -101 -15 -134 -23 -53 -12 -62 -12 -77 2 -19 17 -48 11 -49 -9 0 -7 -4 -3 -9 10 -12 29 -42 29 -146 0 -58 -16 -101 -21 -161 -19 -45 1 -108 -3 -138 -9 -31 -6 -59 -9 -62 -7 -8 9 58 24 227 53 175 30 194 36 185 65 -9 27 15 34 181 54 191 23 252 39 313 85 54 40 64 43 231 61 134 14 177 25 213 55 16 13 36 24 45 24 27 0 67 24 67 40 0 11 18 17 67 22 76 7 166 31 218 58 19 10 67 33 105 51 55 27 65 34 47 37 -16 3 -22 8 -18 19 3 8 6 23 6 34 0 12 7 19 18 19 31 0 194 51 257 80 33 15 77 35 97 43 24 10 38 23 38 34 0 28 -29 63 -53 64 -12 0 30 18 93 39 180 58 380 143 380 161 0 12 -32 20 -102 26 -37 3 -65 10 -62 14 3 5 14 9 24 9 32 0 170 49 255 90 44 22 105 48 136 60 65 24 104 49 77 50 -10 0 -33 8 -53 17 -27 13 -38 14 -43 6 -5 -9 -19 -9 -47 -3 -22 5 -55 10 -72 10 -23 0 -33 5 -33 15 0 16 21 27 125 66 83 32 329 154 393 196 28 19 52 40 52 46 0 8 -3 8 -11 0 -6 -6 -39 -9 -82 -6 -102 6 -118 10 -110 30 5 13 2 15 -20 9 -15 -3 -27 -4 -27 -2 0 5 170 98 324 176 116 59 215 137 201 159 -5 8 -18 11 -36 7 -21 -4 -35 0 -49 14 -11 11 -20 23 -20 28 1 11 89 67 152 95 31 14 95 51 144 83 79 53 85 59 63 65 -38 11 -98 10 -120 -2 -11 -5 -36 -9 -56 -7 l-37 3 81 48 c44 26 86 54 93 62 7 8 19 15 27 15 41 0 228 119 239 152 9 30 -6 40 -25 16 -16 -19 -22 -20 -47 -10 -16 6 -37 12 -48 14 -25 4 61 66 112 80 20 5 55 24 76 41 53 41 159 86 351 148 222 72 234 78 178 100 -29 12 -285 6 -333 -7 -25 -6 -25 -6 -5 10 19 17 18 17 -20 11 -22 -4 -71 -17 -110 -30 -38 -13 -117 -31 -175 -40 -58 -10 -133 -28 -168 -42 l-62 -24 -26 20 c-24 19 -28 19 -77 4 -74 -21 -184 -75 -239 -117 -26 -20 -52 -36 -57 -36 -15 0 -14 23 2 39 10 11 8 12 -9 3 -16 -9 -22 -7 -32 9 -7 10 -18 19 -25 19 -26 0 -184 -106 -234 -157 l-52 -52 -16 47 c-10 26 -19 53 -21 60 -8 29 -73 4 -177 -67 -40 -28 -92 -71 -117 -96 -24 -25 -50 -45 -57 -45 -7 0 -24 22 -38 49 -13 27 -29 52 -34 56 -26 15 -175 -99 -257 -197 -21 -26 -43 -46 -49 -45 -5 2 -20 30 -33 63 -13 32 -26 61 -28 63 -17 18 -183 -122 -235 -198 -19 -28 -38 -50 -44 -50 -5 0 -22 18 -37 39 -15 22 -33 40 -40 40 -20 0 -209 -202 -243 -259 -16 -28 -35 -51 -41 -51 -6 0 -19 18 -29 40 -10 22 -26 47 -36 56 -17 15 -20 15 -48 -5 -16 -12 -67 -64 -112 -117 -46 -53 -85 -91 -87 -84 -3 8 -10 6 -21 -4 -16 -15 -19 -14 -31 9 -17 32 -24 31 -38 -1 -13 -27 -32 -24 -32 4 1 30 27 54 157 141 70 47 137 100 147 116 11 17 38 44 60 60 62 47 65 59 31 96 -21 23 -26 33 -17 36 53 19 342 282 342 311 0 5 -11 13 -24 16 -19 5 -25 14 -28 43 -4 36 -1 42 66 108 39 39 76 77 82 85 6 8 35 37 63 64 57 54 56 65 -5 73 -30 4 -49 -1 -84 -21 -93 -53 -78 -29 62 98 59 54 131 127 159 163 28 36 64 72 80 82 16 9 33 28 38 43 9 25 8 27 -10 15 -15 -9 -23 -9 -41 2 -22 14 -46 9 -170 -34 -24 -9 -38 -10 -38 -3 0 5 42 54 93 107 132 139 237 262 237 278 0 7 11 18 25 23 25 9 69 69 59 79 -3 3 -14 -5 -25 -19 l-20 -25 3 25 c5 41 -27 36 -79 -13 -53 -48 -135 -79 -155 -59 -16 16 83 115 106 106 9 -3 16 -1 16 5 0 6 -4 11 -10 11 -29 0 -1 42 94 143 78 82 126 168 110 194 -20 32 -59 28 -84 -7 -19 -27 -27 -31 -53 -26 -25 5 -29 3 -24 -13 2 -10 0 -26 -5 -35 -9 -17 -53 -22 -62 -7 -6 9 115 175 186 256 57 64 129 167 158 225 18 36 19 42 5 28 -14 -13 -22 -14 -35 -6 -19 12 -50 5 -50 -12 0 -5 14 -10 30 -10 34 0 34 0 18 -35 -14 -31 -20 -31 -33 -2 -6 12 -28 31 -50 42 -22 11 -42 21 -44 22 -7 4 74 120 122 173 102 112 150 209 111 224 -30 12 -134 -73 -134 -110 0 -10 -13 -14 -40 -14 -22 0 -40 2 -40 5 0 2 18 32 40 66 57 88 91 161 97 209 7 50 44 84 81 75 22 -5 24 -4 18 20 -5 18 -2 25 8 25 10 0 12 7 8 22 -3 14 -1 19 6 14 12 -7 52 40 52 62 0 13 -3 13 -12 4 -7 -7 -37 -12 -68 -12 -49 -1 -53 -2 -37 -15 11 -7 26 -11 35 -8 14 5 14 3 -2 -15 -15 -17 -22 -19 -38 -11 -11 6 -29 9 -39 6 -24 -6 -24 -6 7 56 14 29 48 72 75 96 58 51 79 87 79 136 0 25 4 35 15 35 9 0 19 10 24 23 12 30 5 34 -19 12 -11 -10 -34 -18 -50 -18 -16 0 -27 -4 -24 -9 12 -18 -9 -48 -50 -71 l-44 -24 21 51 c11 28 36 68 54 89 33 37 43 72 21 79 -15 5 70 175 155 307 63 98 72 117 68 148 -1 8 5 10 14 7 10 -4 15 0 15 10 0 23 -31 20 -66 -6 -101 -76 -348 -330 -381 -392 -7 -13 -23 -26 -36 -30 -14 -3 -41 -24 -61 -46 -20 -22 -41 -40 -47 -40 -5 0 -8 -4 -5 -8 3 -5 -11 -30 -30 -57 -18 -27 -34 -54 -34 -61 0 -6 -7 -17 -15 -24 -13 -10 -19 -9 -36 6 -15 14 -24 16 -37 8 -27 -17 -76 -96 -107 -170 -16 -38 -32 -73 -37 -78 -5 -6 -23 4 -44 25 l-36 34 -24 -30 c-13 -16 -27 -38 -30 -47 -3 -10 -12 -18 -20 -18 -9 0 -14 -7 -12 -17 1 -10 -5 -38 -14 -63 -9 -25 -19 -57 -22 -72 -8 -33 -20 -35 -65 -7 -32 19 -34 19 -54 2 -27 -24 -116 -212 -126 -269 -5 -25 -11 -48 -15 -51 -3 -3 -29 11 -58 31 -29 20 -59 36 -65 36 -35 0 -133 -212 -133 -288 0 -63 -19 -70 -82 -28 -29 20 -56 36 -59 36 -14 0 -98 -187 -119 -263 -12 -42 -20 -96 -18 -119 4 -53 -15 -60 -69 -24 -21 14 -45 26 -54 26 -19 0 -40 -24 -57 -63 -19 -44 -54 -189 -54 -224 0 -26 -5 -32 -26 -36 -16 -3 -43 3 -66 15 l-40 20 -22 -27 c-39 -49 -104 -267 -104 -349 0 -61 -14 -65 -83 -26 l-56 31 -15 -23 c-23 -35 -45 -132 -55 -242 -6 -54 -12 -100 -15 -103 -3 -3 -28 9 -56 27 -28 18 -52 31 -54 29 -39 -44 -84 -256 -88 -416 -1 -35 -5 -63 -10 -63 -11 0 -48 38 -48 49 0 6 -8 10 -17 10 -10 0 -30 3 -45 6 -20 5 -29 2 -36 -12 -19 -34 -43 -174 -49 -284 -6 -101 -7 -107 -24 -98 -17 8 -18 6 -13 -21 8 -36 -2 -38 -53 -10 -30 16 -40 17 -49 7 -18 -19 -34 -99 -40 -199 -10 -183 -13 -201 -36 -195 -14 4 -22 0 -25 -14 -6 -21 -18 -25 -29 -8 -6 11 24 118 52 187 8 18 14 44 14 58 l0 25 -29 -20 c-33 -24 -44 -25 -70 -9 -18 11 -17 14 16 71 60 101 135 265 137 301 2 18 6 38 10 44 11 18 -23 42 -60 42 -19 0 -34 2 -34 5 0 3 18 41 39 84 53 104 130 298 135 338 2 17 10 41 16 53 17 31 -1 45 -54 41 -24 -1 -47 2 -50 7 -3 5 10 40 29 78 55 109 117 273 110 294 -3 10 1 35 10 55 19 48 19 52 -4 31 -16 -15 -19 -15 -31 -1 -11 14 -14 13 -27 -5 -12 -18 -82 -60 -98 -60 -3 0 17 42 44 93 40 75 121 287 121 318 0 4 -9 11 -21 14 -29 9 -22 50 9 49 18 0 22 5 22 28 0 44 -48 31 -75 -22 -16 -30 -72 -76 -82 -66 -3 3 7 24 22 46 32 47 94 220 95 266 0 17 9 57 20 89 21 60 5 64 -20 5 -7 -18 -20 -30 -31 -30 -17 0 -17 2 1 43 23 50 25 67 6 67 -8 0 -19 -13 -24 -30 -9 -26 -14 -29 -34 -21 -28 10 -28 13 1 76 38 83 61 156 61 197 0 36 -2 38 -30 38 l-31 0 23 31 c23 30 23 30 28 7 5 -20 7 -21 13 -5 10 25 9 77 -1 77 -4 0 -13 -5 -20 -12 -9 -9 -15 -9 -24 0 -7 7 -25 12 -40 12 -16 0 -31 6 -34 13 -2 7 7 58 21 113 13 54 25 117 25 139 0 22 9 67 19 100 10 33 21 76 25 96 6 35 5 36 -33 49 -33 10 -46 10 -71 0 -17 -7 -33 -11 -35 -8 -3 2 2 36 10 74 24 111 16 162 -21 147 -21 -8 -17 22 11 77 14 27 25 63 25 80 l0 31 -26 -20 c-15 -12 -36 -21 -48 -21 -31 0 -42 -11 -55 -52 -7 -20 -19 -42 -28 -50 -14 -11 -15 -10 -9 9 12 37 26 136 26 184 0 25 4 59 9 75 19 61 21 94 6 94 -10 0 -15 10 -15 30 0 17 -5 30 -10 30 -14 0 -2 96 18 134 13 27 13 31 -4 43 -29 21 -90 12 -83 -13 1 -5 -4 -10 -12 -12 -12 -2 -13 12 -8 85 3 49 11 101 17 116 18 42 14 55 -8 27 -11 -14 -20 -19 -20 -12 0 6 -7 12 -15 12 -10 0 -15 10 -15 34 0 53 11 96 25 96 31 0 27 53 -6 70 -26 14 -33 12 -19 -5 11 -13 8 -15 -17 -15 -16 0 -33 -4 -39 -10 -12 -12 -7 117 7 179 13 56 6 63 -14 13 -17 -43 -47 -64 -47 -33 0 16 26 100 44 143 7 15 3 16 -26 11 -27 -4 -35 -2 -35 11 0 11 10 16 32 16 18 0 38 7 45 15 10 12 6 15 -28 21 -36 6 -40 9 -49 49 -5 24 -6 50 -2 58 5 8 13 62 18 120 5 58 12 111 16 116 10 18 -10 13 -37 -9 l-25 -19 4 52 c3 29 8 65 13 80 5 15 7 34 3 42 -3 8 3 97 12 198 17 179 17 183 -2 252 l-20 70 -12 -60z m-204 -587 c-3 -8 -6 -5 -6 6 -1 11 2 17 5 13 3 -3 4 -12 1 -19z m233 -106 c0 -10 -7 -27 -16 -38 -15 -18 -15 -18 -10 6 3 14 6 31 6 38 0 6 5 12 10 12 6 0 10 -8 10 -18z m-3 -124 c-3 -7 -5 -2 -5 12 0 14 2 19 5 13 2 -7 2 -19 0 -25z m-352 -11 c0 -26 -20 -25 -23 2 -3 16 1 22 10 19 7 -3 13 -12 13 -21z m465 -602 c0 -19 -4 -35 -10 -35 -11 0 -13 30 -4 54 10 25 14 19 14 -19z m-50 -95 c0 -5 -7 -10 -15 -10 -8 0 -15 5 -15 10 0 6 7 10 15 10 8 0 15 -4 15 -10z m-762 -113 c2 -15 -1 -27 -7 -27 -6 0 -11 3 -11 8 0 4 -3 18 -7 31 -4 18 -2 23 8 19 8 -2 15 -17 17 -31z m902 -127 c8 -5 12 -11 9 -14 -7 -8 -49 5 -49 15 0 12 21 11 40 -1z m4 -56 c29 -11 16 -24 -24 -24 -31 0 -38 3 -34 15 6 16 31 19 58 9z m3176 -585 c-14 -27 -80 -99 -91 -99 -5 0 4 18 18 40 15 22 30 40 34 40 4 0 12 14 18 32 8 23 14 29 22 21 8 -8 7 -18 -1 -34z m-4282 6 c16 -34 15 -45 -2 -45 -14 0 -46 41 -46 60 0 21 37 9 48 -15z m1379 -215 c-3 -11 1 -23 8 -28 11 -6 10 -13 -6 -40 -24 -37 -39 -34 -39 9 0 30 -17 40 -26 14 -8 -21 -25 -8 -17 13 11 31 36 52 61 52 19 0 23 -4 19 -20z m-116 -43 c-18 -18 -23 -1 -9 29 13 28 13 28 16 5 2 -13 -1 -28 -7 -34z m2899 -37 c0 -11 -89 -65 -96 -58 -2 3 9 19 25 37 27 29 71 43 71 21z m-7279 -272 c8 -15 8 -18 0 -14 -6 4 -16 16 -22 28 -8 15 -8 18 0 14 6 -4 16 -16 22 -28z m-92 -32 c14 -14 22 -29 18 -32 -8 -9 -32 11 -59 49 -19 27 -20 29 -2 19 10 -6 30 -22 43 -36z m7371 -78 c-36 -72 -54 -90 -82 -79 l-23 10 22 7 c12 3 39 30 59 60 43 63 55 64 24 2z m-2840 -6 c0 -5 -7 -17 -16 -28 -8 -10 -14 -14 -11 -9 2 6 7 18 10 28 7 17 17 23 17 9z m60 -28 c0 -8 -7 -14 -15 -14 -15 0 -21 21 -9 33 10 9 24 -2 24 -19z m-4560 -218 c0 -13 -10 -4 -30 27 -16 26 -30 51 -30 55 1 16 59 -65 60 -82z m7160 -113 c0 -11 -11 -15 -72 -28 -24 -4 -23 -3 14 40 30 33 34 35 45 19 7 -10 13 -24 13 -31z m60 -52 c0 -11 -11 -32 -24 -48 l-24 -28 2 34 c1 19 9 39 21 47 24 18 25 18 25 -5z m-2695 -21 c3 -5 1 -10 -4 -10 -6 0 -11 5 -11 10 0 6 2 10 4 10 3 0 8 -4 11 -10z m-4395 -200 c0 -16 -4 -30 -10 -30 -11 0 -14 43 -3 53 11 12 13 8 13 -23z m7030 -122 c-1 -33 -22 -67 -53 -83 -42 -21 -43 1 -3 45 20 22 36 45 36 50 0 6 5 10 10 10 6 0 10 -10 10 -22z m-4305 -278 c3 -6 -1 -7 -9 -4 -18 7 -21 14 -7 14 6 0 13 -4 16 -10z m-2576 -66 c3 -16 1 -17 -13 -5 -19 16 -21 34 -3 29 6 -3 14 -13 16 -24z m6749 -119 c-8 -18 -14 -22 -19 -13 -4 7 -3 18 3 25 18 22 28 14 16 -12z m-6530 -197 c19 -19 14 -28 -12 -28 -27 0 -41 14 -31 30 8 14 28 13 43 -2z m6385 -219 c-7 -7 -20 -8 -30 -5 -17 7 -17 8 1 22 23 17 48 2 29 -17z m-2366 -63 c-8 -19 -37 -21 -37 -3 0 7 5 18 12 25 15 15 33 -1 25 -22z m83 -16 c0 -5 -4 -10 -10 -10 -5 0 -10 5 -10 10 0 6 5 10 10 10 6 0 10 -4 10 -10z m2090 -279 c0 -12 -20 -25 -27 -18 -7 7 6 27 18 27 5 0 9 -4 9 -9z m-210 -270 c0 -12 -63 -51 -81 -51 -8 1 3 10 23 20 20 11 40 24 43 30 8 12 15 13 15 1z m-7990 -216 c0 -8 -2 -15 -4 -15 -2 0 -6 7 -10 15 -3 8 -1 15 4 15 6 0 10 -7 10 -15z m7750 -164 c0 -14 -24 -30 -68 -45 -56 -20 -53 -7 6 26 52 29 62 32 62 19z m-1884 -28 c-7 -7 -26 7 -26 19 0 6 6 6 15 -2 9 -7 13 -15 11 -17z m-5732 -9 c9 -3 16 -13 16 -20 0 -12 -4 -12 -20 -4 -11 6 -20 15 -20 20 0 12 3 12 24 4z m9830 -35 c-6 -10 -65 -39 -79 -39 -3 0 -5 6 -5 14 0 8 17 18 38 24 51 14 54 14 46 1z m-9730 -8 c11 -4 15 -10 10 -13 -10 -6 -54 8 -54 17 0 7 21 5 44 -4z m9471 -202 c7 -22 -7 -39 -34 -39 -11 0 -11 3 0 17 15 17 7 17 -61 -3 -40 -11 -11 13 35 29 54 20 53 20 60 -4z m-9241 -49 c17 -17 -38 -11 -60 6 -18 15 -17 15 16 10 19 -4 39 -11 44 -16z m9319 13 c-7 -2 -19 -2 -25 0 -7 3 -2 5 12 5 14 0 19 -2 13 -5z m-3923 -113 l0 -40 -46 0 -46 0 32 40 c17 22 38 40 46 40 10 0 14 -12 14 -40z m-6 -104 c-3 -9 -10 -16 -15 -16 -6 0 -5 9 1 21 13 24 24 20 14 -5z m-2807 -28 c-3 -7 -5 -2 -5 12 0 14 2 19 5 13 2 -7 2 -19 0 -25z m1695 -35 c24 -32 64 -87 88 -122 43 -61 44 -64 25 -77 -15 -11 -16 -17 -7 -26 18 -18 15 -28 -8 -28 -42 0 -19 -59 84 -213 95 -144 116 -187 116 -237 0 -23 10 -61 24 -88 50 -98 108 -326 146 -568 24 -154 36 -388 22 -424 l-10 -25 -10 25 c-5 14 -42 91 -81 171 -39 80 -71 150 -71 156 0 6 -22 71 -49 145 -47 127 -121 423 -121 483 0 37 -21 95 -35 95 -6 0 -21 -7 -33 -16 -22 -15 -22 -15 -22 29 0 199 -31 507 -50 507 -4 0 -19 -9 -33 -20 -14 -11 -27 -20 -30 -20 -2 0 -8 23 -11 52 -8 58 3 258 14 258 4 0 27 -26 52 -57z m1108 -54 c0 -16 -4 -29 -9 -29 -11 0 -21 38 -14 56 8 22 23 6 23 -27z m-50 -41 c0 -16 -3 -19 -11 -11 -6 6 -8 16 -5 22 11 17 16 13 16 -11z m3660 -3 c0 -8 -7 -15 -15 -15 -26 0 -18 20 13 29 1 1 2 -6 2 -14z m-6118 -30 c9 4 19 1 23 -5 5 -8 -2 -10 -21 -8 -15 2 -29 10 -31 18 -4 11 -2 12 5 2 5 -7 16 -10 24 -7z m3759 -1 c-19 -8 -39 -13 -45 -10 -14 5 32 25 59 25 13 0 9 -5 -14 -15z m-6336 -23 c3 -5 1 -13 -5 -16 -15 -9 -43 3 -35 15 8 13 32 13 40 1z m4985 -271 c4 -107 2 -140 -7 -140 -7 0 -15 -11 -19 -25 -5 -20 -11 -24 -29 -19 -22 6 -23 3 -29 -83 -23 -316 -26 -333 -77 -501 -62 -199 -110 -323 -184 -476 -55 -113 -79 -144 -70 -88 39 233 123 651 150 744 7 25 11 64 8 85 -6 47 50 225 101 318 39 73 55 114 65 179 7 43 6 49 -10 53 -28 8 -24 18 26 70 63 65 69 56 75 -117z m-1357 -647 c176 -90 568 -469 682 -658 19 -32 35 -63 35 -68 0 -5 -19 8 -43 30 -23 21 -71 58 -105 82 -35 23 -66 49 -69 57 -3 8 -11 14 -18 14 -22 0 -295 290 -373 395 -93 127 -114 140 -124 75 -4 -23 -5 -22 -21 14 -19 44 -22 76 -7 76 6 0 25 -7 43 -17z m3654 -29 c-3 -3 -12 -4 -19 -1 -8 3 -5 6 6 6 11 1 17 -2 13 -5z m-2087 -197 c0 -22 -50 -85 -131 -167 -88 -89 -348 -324 -354 -319 -7 8 71 116 122 168 29 30 53 59 53 64 0 15 166 174 231 222 65 48 79 53 79 32z m506 -2094 c-10 -10 -19 5 -10 18 6 11 8 11 12 0 2 -7 1 -15 -2 -18z"/><path d="M6720 10910 c-11 -21 -5 -60 10 -60 18 0 28 64 11 75 -6 3 -15 -4 -21 -15z"/><path d="M2096 10871 c-3 -5 1 -14 9 -21 12 -10 15 -10 15 3 0 19 -16 31 -24 18z"/><path d="M5490 10825 c0 -8 7 -15 15 -15 8 0 15 7 15 15 0 8 -7 15 -15 15 -8 0 -15 -7 -15 -15z"/><path d="M2085 10750 c-7 -12 2 -30 16 -30 5 0 9 9 9 20 0 21 -15 27 -25 10z"/><path d="M2155 10680 c-13 -15 -15 -24 -8 -31 19 -19 48 -6 48 20 0 32 -17 36 -40 11z"/><path d="M9809 10593 c-8 -60 13 -103 23 -48 6 30 -1 75 -12 75 -4 0 -9 -12 -11 -27z"/><path d="M6840 10435 c1 -26 2 -28 11 -12 8 14 8 22 0 30 -8 8 -11 3 -11 -18z"/><path d="M3075 10089 c-10 -15 -2 -19 23 -12 12 3 19 9 16 14 -7 12 -31 11 -39 -2z"/><path d="M9682 9913 c-12 -25 -21 -47 -19 -50 7 -7 68 69 64 80 -8 24 -23 14 -45 -30z"/><path d="M5215 9140 c-8 -13 4 -32 16 -25 12 8 12 35 0 35 -6 0 -13 -4 -16 -10z"/><path d="M8122 9010 c0 -14 2 -19 5 -12 2 6 2 18 0 25 -3 6 -5 1 -5 -13z"/><path d="M4322 8680 c0 -14 2 -19 5 -12 2 6 2 18 0 25 -3 6 -5 1 -5 -13z"/><path d="M6920 7251 c-7 -13 -7 -22 0 -26 13 -8 30 3 30 20 0 23 -18 27 -30 6z"/><path d="M10228 6413 c6 -2 18 -2 25 0 6 3 1 5 -13 5 -14 0 -19 -2 -12 -5z"/></g></svg>
